<svg width="132" height="182" viewBox="0 0 132 182" fill="none" xmlns="http://www.w3.org/2000/svg">
<path d="M123.881 18.9756L129.439 17.9219V15.5039H101.043V17.9219L106.601 18.9756C108.457 18.9756 109.972 21.5411 109.972 23.406V54.7405C109.972 55.42 109.419 55.9732 108.741 55.9732H94.6323V60.4563H108.741C109.419 60.4563 109.972 61.0095 109.972 61.689V93.0235C109.972 94.8831 108.462 97.4539 106.601 97.4539L101.043 98.5076V100.926H129.439V98.5076L123.881 97.4539C122.024 97.4539 120.51 94.8884 120.51 93.0235V23.406C120.51 21.5464 122.019 18.9756 123.881 18.9756Z" fill="white"/>
<path d="M7.99728 18.9756L2.43896 17.9219V15.5039H30.8353V17.9219L25.277 18.9756C23.4207 18.9756 21.9062 21.5411 21.9062 23.406V54.7405C21.9062 55.42 22.4584 55.9732 23.1367 55.9732H37.2455V60.4563H23.1367C22.4584 60.4563 21.9062 61.0095 21.9062 61.689V93.0235C21.9062 94.8831 23.4154 97.4539 25.277 97.4539L30.8353 98.5076V100.926H2.43896V98.5076L7.99728 97.4539C9.85356 97.4539 11.368 94.8884 11.368 93.0235V23.406C11.368 21.5464 9.85882 18.9756 7.99728 18.9756Z" fill="white"/>
<path d="M82.6639 0H32.7021V2.3759C32.7021 2.3759 34.9318 3.29781 35.7153 3.42951C38.5707 3.91417 40.9686 6.84322 40.9686 9.74592V103.254C40.9686 106.157 38.5707 109.086 35.7153 109.57C34.9265 109.702 32.7021 110.624 32.7021 110.624V113H82.6639C87.3861 113 91.2249 109.154 91.2249 104.424V8.57641C91.2249 3.84569 87.3861 0 82.6639 0ZM80.1451 9.47198V103.523C80.1451 106.441 77.7734 108.817 74.8602 108.817H57.3386C54.4253 108.817 52.0537 106.441 52.0537 103.523V9.47198C52.0537 6.55347 54.4253 4.17758 57.3386 4.17758H74.8602C77.7734 4.17758 80.1451 6.55347 80.1451 9.47198Z" fill="white"/>
<path d="M-9.76473e-05 154.864C-9.76473e-05 154.784 0.0159024 154.648 0.0479024 154.456C0.0959024 154.264 0.151902 154.112 0.215902 154C0.807902 153.968 1.2159 153.808 1.4399 153.52C1.6799 153.216 1.7999 152.736 1.7999 152.08V141.16C1.7999 140.632 1.7679 140.256 1.7039 140.032C1.6399 139.792 1.4959 139.648 1.2719 139.6C1.0639 139.536 0.727902 139.504 0.263902 139.504C0.263902 139.296 0.279902 139.104 0.311902 138.928C0.343902 138.736 0.367902 138.6 0.383902 138.52C0.415902 138.392 0.463902 138.32 0.527902 138.304C0.591902 138.288 0.631902 138.28 0.647902 138.28H6.2159C9.3039 138.28 11.6799 138.952 13.3439 140.296C15.0079 141.624 15.8399 143.616 15.8399 146.272C15.8399 148.048 15.4239 149.608 14.5919 150.952C13.7599 152.296 12.5439 153.336 10.9439 154.072C9.3439 154.792 7.3919 155.128 5.0879 155.08H0.239902C0.0799024 155.08 -9.76473e-05 155.008 -9.76473e-05 154.864ZM4.1279 152.08C4.1279 152.464 4.1519 152.776 4.1999 153.016C4.2639 153.256 4.4239 153.432 4.6799 153.544C4.9359 153.64 5.3759 153.688 5.9999 153.688C7.4879 153.688 8.7919 153.416 9.9119 152.872C11.0319 152.328 11.8959 151.504 12.5039 150.4C13.1279 149.296 13.4399 147.912 13.4399 146.248C13.4399 144.616 13.1439 143.32 12.5519 142.36C11.9599 141.4 11.1359 140.712 10.0799 140.296C9.0399 139.88 7.8239 139.672 6.4319 139.672H5.4479C4.9839 139.672 4.6479 139.784 4.4399 140.008C4.2319 140.232 4.1279 140.616 4.1279 141.16V152.08ZM28.4418 155.08C28.2818 155.08 28.2018 155 28.2018 154.84C28.2018 154.776 28.2258 154.648 28.2738 154.456C28.3058 154.264 28.3538 154.112 28.4178 154C28.9138 153.92 29.3138 153.76 29.6178 153.52C29.9378 153.264 30.2418 152.792 30.5298 152.104L36.2418 138.568C36.3218 138.376 36.4178 138.224 36.5298 138.112C36.6418 137.984 36.7858 137.92 36.9618 137.92H37.7538L42.9378 151.528C43.1938 152.168 43.4258 152.68 43.6338 153.064C43.8578 153.432 44.1298 153.656 44.4498 153.736C44.5778 153.768 44.7298 153.792 44.9058 153.808C45.0818 153.824 45.2738 153.84 45.4818 153.856C45.4978 154.016 45.4818 154.2 45.4338 154.408C45.4018 154.616 45.3698 154.76 45.3378 154.84C45.2898 155 45.2018 155.08 45.0738 155.08H39.7938C39.6338 155.08 39.5538 155 39.5538 154.84C39.5538 154.776 39.5698 154.648 39.6018 154.456C39.6498 154.264 39.7058 154.112 39.7698 154C40.1858 153.984 40.4818 153.936 40.6578 153.856C40.8338 153.776 40.9218 153.608 40.9218 153.352C40.9218 153.192 40.8818 152.992 40.8018 152.752C40.7378 152.496 40.6418 152.192 40.5138 151.84L39.6258 149.392H33.3618L32.2578 152.128C32.1458 152.4 32.0578 152.632 31.9938 152.824C31.9298 153.016 31.8978 153.176 31.8978 153.304C31.8978 153.56 32.0738 153.728 32.4258 153.808C32.5538 153.824 32.7138 153.84 32.9058 153.856C33.0978 153.856 33.2898 153.856 33.4818 153.856C33.4818 154.288 33.4498 154.616 33.3858 154.84C33.3378 155 33.2498 155.08 33.1218 155.08H28.4418ZM33.9378 147.952H39.0978L36.7698 141.64C36.7538 141.56 36.7138 141.52 36.6498 141.52C36.5858 141.52 36.5378 141.56 36.5058 141.64L33.9378 147.952ZM69.3608 155.104L58.2008 155.08C58.0408 155.08 57.9608 155 57.9608 154.84C57.9608 154.776 57.9768 154.648 58.0088 154.456C58.0568 154.264 58.1128 154.112 58.1768 154C58.7688 153.952 59.1768 153.784 59.4008 153.496C59.6408 153.208 59.7608 152.736 59.7608 152.08V141.16C59.7608 140.616 59.7288 140.232 59.6648 140.008C59.6008 139.784 59.4568 139.648 59.2328 139.6C59.0248 139.536 58.6888 139.504 58.2248 139.504C58.2248 139.296 58.2408 139.104 58.2728 138.928C58.3048 138.736 58.3288 138.6 58.3448 138.52C58.3928 138.36 58.4808 138.28 58.6088 138.28H69.0488C69.2248 138.28 69.3448 138.32 69.4088 138.4C69.4728 138.464 69.5128 138.584 69.5288 138.76L69.7208 141.736C69.6248 141.784 69.4808 141.824 69.2888 141.856C69.0968 141.888 68.9608 141.904 68.8808 141.904C68.6728 141.904 68.5528 141.816 68.5208 141.64L68.3288 140.632C68.2648 140.248 68.1688 140 68.0408 139.888C67.9128 139.776 67.6568 139.72 67.2728 139.72L63.5288 139.672C63.0648 139.656 62.7288 139.688 62.5208 139.768C62.3288 139.832 62.2088 139.976 62.1608 140.2C62.1128 140.408 62.0888 140.736 62.0888 141.184V145.456H65.2808C65.9368 145.456 66.3608 145.376 66.5528 145.216C66.7608 145.056 66.8728 144.744 66.8888 144.28C67.0008 144.216 67.1448 144.176 67.3208 144.16C67.5128 144.128 67.6408 144.112 67.7048 144.112C67.8648 144.112 67.9448 144.192 67.9448 144.352L67.8488 148.36C67.8488 148.488 67.7688 148.576 67.6088 148.624C67.5288 148.64 67.4008 148.664 67.2248 148.696C67.0488 148.728 66.8728 148.744 66.6968 148.744C66.6968 148.184 66.6648 147.768 66.6008 147.496C66.5528 147.224 66.4248 147.048 66.2168 146.968C66.0248 146.872 65.7128 146.824 65.2808 146.824H62.0888V152.056C62.0888 152.776 62.1848 153.24 62.3768 153.448C62.5688 153.64 62.8648 153.728 63.2648 153.712L67.4168 153.616C67.8808 153.6 68.2328 153.528 68.4728 153.4C68.7288 153.272 68.9128 153.032 69.0248 152.68L69.4088 151.576C69.4888 151.4 69.6088 151.312 69.7688 151.312C69.8488 151.312 69.9768 151.336 70.1528 151.384C70.3288 151.432 70.4648 151.48 70.5608 151.528L70.0328 154.528C69.9528 154.912 69.7288 155.104 69.3608 155.104ZM83.8883 155.08C83.7283 155.08 83.6483 155 83.6483 154.84C83.6483 154.776 83.6643 154.648 83.6963 154.456C83.7443 154.264 83.8003 154.112 83.8643 154C84.4563 153.968 84.8643 153.808 85.0883 153.52C85.3283 153.216 85.4483 152.736 85.4483 152.08V141.16C85.4483 140.648 85.4163 140.288 85.3523 140.08C85.2883 139.856 85.1443 139.712 84.9203 139.648C84.7123 139.584 84.3763 139.536 83.9123 139.504C83.9123 139.296 83.9283 139.104 83.9603 138.928C83.9923 138.736 84.0163 138.6 84.0323 138.52C84.0803 138.36 84.1683 138.28 84.2963 138.28H89.2883C89.4483 138.28 89.5283 138.36 89.5283 138.52C89.5283 138.584 89.5043 138.712 89.4563 138.904C89.4243 139.096 89.3763 139.248 89.3123 139.36C88.6723 139.376 88.2563 139.52 88.0643 139.792C87.8723 140.048 87.7763 140.504 87.7763 141.16V145.576H96.3203V141.16C96.3203 140.664 96.2883 140.304 96.2243 140.08C96.1603 139.856 96.0163 139.712 95.7923 139.648C95.5843 139.584 95.2483 139.536 94.7843 139.504C94.7843 139.296 94.8003 139.104 94.8323 138.928C94.8643 138.736 94.8883 138.6 94.9043 138.52C94.9523 138.36 95.0403 138.28 95.1683 138.28H100.088C100.248 138.28 100.328 138.36 100.328 138.52C100.328 138.584 100.304 138.712 100.256 138.904C100.224 139.096 100.176 139.248 100.112 139.36C99.5203 139.376 99.1283 139.52 98.9363 139.792C98.7443 140.048 98.6483 140.504 98.6483 141.16V152.08C98.6483 152.784 98.6803 153.24 98.7443 153.448C98.8083 153.656 98.9603 153.776 99.2003 153.808C99.2963 153.824 99.4483 153.84 99.6563 153.856C99.8643 153.856 100.048 153.856 100.208 153.856C100.208 154.288 100.176 154.616 100.112 154.84C100.064 155 99.9763 155.08 99.8483 155.08H94.7123C94.5523 155.08 94.4723 155 94.4723 154.84C94.4723 154.776 94.4883 154.648 94.5203 154.456C94.5683 154.264 94.6243 154.112 94.6883 154C95.2803 153.968 95.6963 153.808 95.9363 153.52C96.1923 153.216 96.3203 152.736 96.3203 152.08V147.136H87.7763V152.08C87.7763 152.784 87.8083 153.24 87.8723 153.448C87.9363 153.656 88.0883 153.776 88.3283 153.808C88.4563 153.824 88.6243 153.84 88.8323 153.856C89.0563 153.856 89.2483 153.856 89.4083 153.856C89.4083 154.288 89.3763 154.616 89.3123 154.84C89.2643 155 89.1763 155.08 89.0483 155.08H83.8883ZM122.288 155.44C121.12 155.44 120.032 155.24 119.024 154.84C118.032 154.424 117.16 153.84 116.408 153.088C115.656 152.336 115.064 151.448 114.632 150.424C114.216 149.4 114.008 148.28 114.008 147.064C114.008 145.736 114.24 144.52 114.704 143.416C115.184 142.296 115.84 141.328 116.672 140.512C117.52 139.68 118.504 139.04 119.624 138.592C120.744 138.144 121.944 137.92 123.224 137.92C124.44 137.92 125.552 138.136 126.56 138.568C127.584 138.984 128.464 139.568 129.2 140.32C129.936 141.072 130.504 141.96 130.904 142.984C131.32 143.992 131.528 145.096 131.528 146.296C131.528 147.608 131.296 148.824 130.832 149.944C130.384 151.064 129.744 152.032 128.912 152.848C128.096 153.664 127.12 154.304 125.984 154.768C124.864 155.216 123.632 155.44 122.288 155.44ZM122.912 153.976C124.144 153.976 125.224 153.68 126.152 153.088C127.08 152.496 127.8 151.672 128.312 150.616C128.824 149.56 129.08 148.344 129.08 146.968C129.08 145.48 128.808 144.168 128.264 143.032C127.736 141.896 126.984 141.008 126.008 140.368C125.032 139.712 123.888 139.384 122.576 139.384C121.424 139.384 120.384 139.688 119.456 140.296C118.544 140.888 117.816 141.712 117.272 142.768C116.728 143.824 116.456 145.032 116.456 146.392C116.456 147.896 116.736 149.216 117.296 150.352C117.872 151.488 118.648 152.376 119.624 153.016C120.6 153.656 121.696 153.976 122.912 153.976Z" fill="white"/>
</svg>
